<svg width="249" height="99" viewBox="0 0 249 99" fill="none" xmlns="http://www.w3.org/2000/svg">
<g clip-path="url(#clip0_8_2)">
<path d="M37.208 44C35.48 44 33.96 43.728 32.648 43.184C31.368 42.64 30.376 41.744 29.672 40.496C28.968 39.248 28.616 37.552 28.616 35.408V25.424H24.44V19.808H28.616L29.336 13.136H35.336V19.808H41.624V25.424H35.336V35.456C35.336 36.512 35.56 37.248 36.008 37.664C36.488 38.08 37.288 38.288 38.408 38.288H41.576V44H37.208ZM55.5838 44.576C53.2798 44.576 51.1998 44.048 49.3438 42.992C47.4878 41.904 46.0158 40.4 44.9278 38.48C43.8718 36.56 43.3438 34.384 43.3438 31.952C43.3438 29.456 43.8718 27.248 44.9278 25.328C46.0158 23.408 47.4878 21.92 49.3438 20.864C51.1998 19.776 53.2958 19.232 55.6318 19.232C57.9678 19.232 60.0638 19.776 61.9198 20.864C63.7758 21.92 65.2318 23.408 66.2878 25.328C67.3758 27.216 67.9198 29.408 67.9198 31.904C67.9198 34.4 67.3758 36.608 66.2878 38.528C65.1998 40.416 63.7278 41.904 61.8718 42.992C60.0478 44.048 57.9518 44.576 55.5838 44.576ZM55.5838 38.768C56.6398 38.768 57.5678 38.512 58.3678 38C59.1678 37.488 59.8078 36.72 60.2878 35.696C60.7998 34.672 61.0558 33.408 61.0558 31.904C61.0558 30.4 60.8158 29.136 60.3358 28.112C59.8558 27.088 59.1998 26.32 58.3678 25.808C57.5678 25.296 56.6558 25.04 55.6318 25.04C54.6398 25.04 53.7278 25.296 52.8958 25.808C52.0638 26.32 51.4078 27.088 50.9278 28.112C50.4478 29.136 50.2078 30.4 50.2078 31.904C50.2078 33.408 50.4478 34.672 50.9278 35.696C51.4078 36.72 52.0478 37.488 52.8478 38C53.6798 38.512 54.5918 38.768 55.5838 38.768ZM71.1024 54.56V19.808H77.0544L77.8224 23.072C78.3024 22.4 78.8944 21.776 79.5984 21.2C80.3024 20.592 81.1344 20.112 82.0944 19.76C83.0864 19.408 84.2224 19.232 85.5024 19.232C87.7424 19.232 89.7264 19.792 91.4544 20.912C93.2144 22.032 94.5904 23.552 95.5824 25.472C96.5744 27.36 97.0704 29.52 97.0704 31.952C97.0704 34.384 96.5584 36.56 95.5344 38.48C94.5104 40.368 93.1344 41.856 91.4064 42.944C89.6784 44.032 87.7264 44.576 85.5504 44.576C83.7904 44.576 82.2544 44.256 80.9424 43.616C79.6624 42.976 78.6224 42.08 77.8224 40.928V54.56H71.1024ZM83.9184 38.72C85.1344 38.72 86.2224 38.432 87.1824 37.856C88.1424 37.28 88.8944 36.48 89.4384 35.456C89.9824 34.432 90.2544 33.264 90.2544 31.952C90.2544 30.608 89.9824 29.424 89.4384 28.4C88.8944 27.376 88.1424 26.576 87.1824 26C86.2224 25.392 85.1344 25.088 83.9184 25.088C82.6704 25.088 81.5664 25.392 80.6064 26C79.6784 26.576 78.9424 27.376 78.3984 28.4C77.8544 29.424 77.5824 30.592 77.5824 31.904C77.5824 33.248 77.8544 34.432 78.3984 35.456C78.9424 36.48 79.6784 37.28 80.6064 37.856C81.5664 38.432 82.6704 38.72 83.9184 38.72ZM109.12 55.136C106.816 55.136 104.8 54.848 103.072 54.272C101.344 53.728 99.9995 52.88 99.0395 51.728C98.1115 50.608 97.6475 49.216 97.6475 47.552C97.6475 46.4 97.9355 45.312 98.5115 44.288C99.1195 43.264 99.9995 42.352 101.152 41.552C102.304 40.752 103.712 40.064 105.376 39.488L107.824 42.848C106.352 43.296 105.28 43.872 104.608 44.576C103.968 45.28 103.648 46.048 103.648 46.88C103.648 47.584 103.888 48.176 104.368 48.656C104.848 49.136 105.488 49.488 106.288 49.712C107.12 49.968 108.048 50.096 109.072 50.096C110.064 50.096 110.928 49.968 111.664 49.712C112.4 49.488 112.976 49.136 113.392 48.656C113.808 48.176 114.016 47.616 114.016 46.976C114.016 46.112 113.728 45.424 113.152 44.912C112.576 44.4 111.392 44.08 109.6 43.952C108 43.824 106.56 43.648 105.28 43.424C104.032 43.168 102.928 42.88 101.968 42.56C101.008 42.208 100.176 41.824 99.4715 41.408C98.7995 40.992 98.2715 40.576 97.8875 40.16V39.056L103.072 33.44L107.824 34.928L101.632 41.072L103.6 37.712C103.952 37.904 104.288 38.096 104.608 38.288C104.96 38.448 105.392 38.608 105.904 38.768C106.416 38.896 107.072 39.024 107.872 39.152C108.704 39.248 109.744 39.36 110.992 39.488C113.104 39.68 114.832 40.08 116.176 40.688C117.52 41.264 118.512 42.064 119.152 43.088C119.824 44.112 120.16 45.36 120.16 46.832C120.16 48.272 119.76 49.616 118.96 50.864C118.192 52.144 116.992 53.168 115.36 53.936C113.728 54.736 111.648 55.136 109.12 55.136ZM109.168 36.896C107.152 36.896 105.408 36.512 103.936 35.744C102.464 34.944 101.328 33.888 100.528 32.576C99.7595 31.232 99.3755 29.728 99.3755 28.064C99.3755 26.432 99.7595 24.96 100.528 23.648C101.328 22.304 102.464 21.232 103.936 20.432C105.408 19.632 107.152 19.232 109.168 19.232C111.216 19.232 112.96 19.632 114.4 20.432C115.872 21.232 116.992 22.304 117.76 23.648C118.528 24.96 118.912 26.432 118.912 28.064C118.912 29.728 118.528 31.232 117.76 32.576C116.992 33.888 115.872 34.944 114.4 35.744C112.96 36.512 111.216 36.896 109.168 36.896ZM109.168 31.808C110.352 31.808 111.312 31.504 112.048 30.896C112.816 30.256 113.2 29.328 113.2 28.112C113.2 26.896 112.816 25.984 112.048 25.376C111.312 24.736 110.352 24.416 109.168 24.416C107.984 24.416 107.008 24.736 106.24 25.376C105.472 25.984 105.088 26.896 105.088 28.112C105.088 29.328 105.472 30.256 106.24 30.896C107.008 31.504 107.984 31.808 109.168 31.808ZM113.152 24.512L112.096 19.808H122.08V23.744L113.152 24.512ZM125.037 44V19.808H130.989L131.613 24.272C132.221 23.216 132.957 22.32 133.821 21.584C134.685 20.848 135.693 20.272 136.845 19.856C137.997 19.44 139.245 19.232 140.589 19.232V26.336H138.333C137.373 26.336 136.477 26.448 135.645 26.672C134.845 26.896 134.141 27.264 133.533 27.776C132.957 28.256 132.509 28.928 132.189 29.792C131.901 30.624 131.757 31.68 131.757 32.96V44H125.037ZM150.625 44.576C148.641 44.576 146.977 44.256 145.633 43.616C144.321 42.944 143.345 42.064 142.705 40.976C142.097 39.856 141.793 38.624 141.793 37.28C141.793 35.84 142.161 34.56 142.897 33.44C143.633 32.32 144.769 31.44 146.305 30.8C147.841 30.16 149.761 29.84 152.065 29.84H158.017C158.017 28.688 157.857 27.744 157.537 27.008C157.249 26.24 156.769 25.664 156.097 25.28C155.457 24.896 154.593 24.704 153.505 24.704C152.321 24.704 151.313 24.96 150.481 25.472C149.681 25.984 149.185 26.752 148.993 27.776H142.465C142.657 26.048 143.233 24.56 144.193 23.312C145.153 22.032 146.433 21.04 148.033 20.336C149.665 19.6 151.505 19.232 153.553 19.232C155.825 19.232 157.793 19.616 159.457 20.384C161.153 21.152 162.449 22.256 163.345 23.696C164.273 25.136 164.737 26.912 164.737 29.024V44H159.073L158.305 40.352C157.985 40.992 157.569 41.568 157.057 42.08C156.577 42.592 156.017 43.04 155.377 43.424C154.737 43.776 154.017 44.048 153.217 44.24C152.449 44.464 151.585 44.576 150.625 44.576ZM152.257 39.392C153.057 39.392 153.777 39.264 154.417 39.008C155.057 38.72 155.601 38.32 156.049 37.808C156.497 37.296 156.865 36.72 157.153 36.08C157.441 35.408 157.633 34.688 157.729 33.92V33.872H152.881C151.953 33.872 151.185 34 150.577 34.256C150.001 34.48 149.569 34.816 149.281 35.264C148.993 35.68 148.849 36.16 148.849 36.704C148.849 37.28 148.993 37.776 149.281 38.192C149.569 38.608 149.969 38.912 150.481 39.104C150.993 39.296 151.585 39.392 152.257 39.392ZM179.129 44.576C176.921 44.576 174.953 44.032 173.225 42.944C171.497 41.856 170.121 40.352 169.097 38.432C168.105 36.512 167.609 34.352 167.609 31.952C167.609 29.488 168.105 27.312 169.097 25.424C170.121 23.504 171.513 22 173.273 20.912C175.065 19.792 177.065 19.232 179.273 19.232C181.001 19.232 182.505 19.552 183.785 20.192C185.065 20.8 186.105 21.68 186.905 22.832V9.44H193.625V44H187.625L186.905 40.736C186.425 41.408 185.833 42.048 185.129 42.656C184.425 43.232 183.577 43.696 182.585 44.048C181.593 44.4 180.441 44.576 179.129 44.576ZM180.761 38.72C182.009 38.72 183.113 38.432 184.073 37.856C185.033 37.28 185.769 36.48 186.281 35.456C186.825 34.432 187.097 33.248 187.097 31.904C187.097 30.56 186.825 29.376 186.281 28.352C185.769 27.328 185.033 26.528 184.073 25.952C183.113 25.376 182.009 25.088 180.761 25.088C179.545 25.088 178.457 25.376 177.497 25.952C176.537 26.528 175.785 27.328 175.241 28.352C174.729 29.376 174.473 30.544 174.473 31.856C174.473 33.2 174.729 34.4 175.241 35.456C175.785 36.48 176.537 37.28 177.497 37.856C178.457 38.432 179.545 38.72 180.761 38.72ZM209.188 44.576C206.756 44.576 204.596 44.064 202.708 43.04C200.852 41.984 199.396 40.528 198.34 38.672C197.284 36.784 196.756 34.608 196.756 32.144C196.756 29.648 197.268 27.44 198.292 25.52C199.348 23.568 200.804 22.032 202.66 20.912C204.548 19.792 206.74 19.232 209.236 19.232C211.636 19.232 213.732 19.76 215.524 20.816C217.348 21.872 218.756 23.296 219.748 25.088C220.772 26.88 221.284 28.944 221.284 31.28C221.284 31.6 221.268 31.952 221.236 32.336C221.236 32.72 221.204 33.136 221.14 33.584H201.556V29.504H214.468C214.372 28.032 213.828 26.864 212.836 26C211.876 25.104 210.676 24.656 209.236 24.656C208.148 24.656 207.156 24.912 206.26 25.424C205.364 25.936 204.66 26.688 204.148 27.68C203.636 28.672 203.38 29.936 203.38 31.472V32.864C203.38 34.112 203.62 35.216 204.1 36.176C204.58 37.104 205.252 37.824 206.116 38.336C206.98 38.848 207.988 39.104 209.14 39.104C210.292 39.104 211.236 38.864 211.972 38.384C212.74 37.904 213.316 37.28 213.7 36.512H220.564C220.116 38.016 219.348 39.376 218.26 40.592C217.204 41.808 215.908 42.784 214.372 43.52C212.836 44.224 211.108 44.576 209.188 44.576ZM234.123 44.576C231.883 44.576 229.947 44.224 228.315 43.52C226.683 42.784 225.403 41.808 224.475 40.592C223.547 39.344 223.003 37.936 222.843 36.368H229.563C229.691 36.944 229.931 37.472 230.283 37.952C230.667 38.4 231.163 38.768 231.771 39.056C232.411 39.344 233.163 39.488 234.027 39.488C234.859 39.488 235.531 39.376 236.043 39.152C236.587 38.896 236.987 38.576 237.243 38.192C237.531 37.808 237.675 37.392 237.675 36.944C237.675 36.304 237.483 35.808 237.099 35.456C236.715 35.104 236.155 34.816 235.419 34.592C234.683 34.368 233.803 34.16 232.779 33.968C231.627 33.712 230.491 33.424 229.371 33.104C228.283 32.784 227.291 32.368 226.395 31.856C225.531 31.312 224.843 30.64 224.331 29.84C223.819 29.04 223.563 28.048 223.563 26.864C223.563 25.424 223.947 24.128 224.715 22.976C225.515 21.824 226.651 20.912 228.123 20.24C229.627 19.568 231.419 19.232 233.499 19.232C236.443 19.232 238.763 19.904 240.459 21.248C242.187 22.56 243.211 24.352 243.531 26.624H237.195C237.035 25.92 236.635 25.376 235.995 24.992C235.355 24.608 234.507 24.416 233.451 24.416C232.363 24.416 231.515 24.608 230.907 24.992C230.331 25.376 230.043 25.888 230.043 26.528C230.043 26.944 230.235 27.328 230.619 27.68C231.003 28 231.547 28.288 232.251 28.544C232.987 28.768 233.883 28.992 234.939 29.216C236.827 29.6 238.475 30.048 239.883 30.56C241.291 31.04 242.395 31.744 243.195 32.672C243.995 33.568 244.395 34.88 244.395 36.608C244.427 38.144 244.011 39.52 243.147 40.736C242.315 41.952 241.131 42.896 239.595 43.568C238.059 44.24 236.235 44.576 234.123 44.576Z" fill="black"/>
<path d="M34.328 87.576C32.344 87.576 30.68 87.256 29.336 86.616C28.024 85.944 27.048 85.064 26.408 83.976C25.8 82.856 25.496 81.624 25.496 80.28C25.496 78.84 25.864 77.56 26.6 76.44C27.336 75.32 28.472 74.44 30.008 73.8C31.544 73.16 33.464 72.84 35.768 72.84H41.72C41.72 71.688 41.56 70.744 41.24 70.008C40.952 69.24 40.472 68.664 39.8 68.28C39.16 67.896 38.296 67.704 37.208 67.704C36.024 67.704 35.016 67.96 34.184 68.472C33.384 68.984 32.888 69.752 32.696 70.776H26.168C26.36 69.048 26.936 67.56 27.896 66.312C28.856 65.032 30.136 64.04 31.736 63.336C33.368 62.6 35.208 62.232 37.256 62.232C39.528 62.232 41.496 62.616 43.16 63.384C44.856 64.152 46.152 65.256 47.048 66.696C47.976 68.136 48.44 69.912 48.44 72.024V87H42.776L42.008 83.352C41.688 83.992 41.272 84.568 40.76 85.08C40.28 85.592 39.72 86.04 39.08 86.424C38.44 86.776 37.72 87.048 36.92 87.24C36.152 87.464 35.288 87.576 34.328 87.576ZM35.96 82.392C36.76 82.392 37.48 82.264 38.12 82.008C38.76 81.72 39.304 81.32 39.752 80.808C40.2 80.296 40.568 79.72 40.856 79.08C41.144 78.408 41.336 77.688 41.432 76.92V76.872H36.584C35.656 76.872 34.888 77 34.28 77.256C33.704 77.48 33.272 77.816 32.984 78.264C32.696 78.68 32.552 79.16 32.552 79.704C32.552 80.28 32.696 80.776 32.984 81.192C33.272 81.608 33.672 81.912 34.184 82.104C34.696 82.296 35.288 82.392 35.96 82.392ZM66.5285 87.576C65.2805 87.576 64.1765 87.416 63.2165 87.096C62.2565 86.808 61.4085 86.392 60.6725 85.848C59.9365 85.304 59.3125 84.68 58.8005 83.976L58.0325 87H52.0805V52.44H58.8005V66.12C59.5365 65 60.5285 64.072 61.7765 63.336C63.0565 62.6 64.6245 62.232 66.4805 62.232C68.6885 62.232 70.6565 62.792 72.3845 63.912C74.1445 65 75.5205 66.504 76.5125 68.424C77.5365 70.312 78.0485 72.488 78.0485 74.952C78.0485 77.352 77.5365 79.512 76.5125 81.432C75.5205 83.352 74.1605 84.856 72.4325 85.944C70.7045 87.032 68.7365 87.576 66.5285 87.576ZM64.8965 81.72C66.1125 81.72 67.2005 81.432 68.1605 80.856C69.1205 80.28 69.8725 79.48 70.4165 78.456C70.9605 77.432 71.2325 76.264 71.2325 74.952C71.2325 73.608 70.9605 72.424 70.4165 71.4C69.8725 70.376 69.1205 69.576 68.1605 69C67.2005 68.392 66.1125 68.088 64.8965 68.088C63.6485 68.088 62.5445 68.392 61.5845 69C60.6565 69.576 59.9205 70.376 59.3765 71.4C58.8325 72.392 58.5605 73.56 58.5605 74.904C58.5605 76.248 58.8325 77.432 59.3765 78.456C59.9205 79.48 60.6565 80.28 61.5845 80.856C62.5445 81.432 63.6485 81.72 64.8965 81.72ZM81.2743 87V62.808H87.2263L87.8503 67.272C88.4583 66.216 89.1943 65.32 90.0583 64.584C90.9223 63.848 91.9303 63.272 93.0823 62.856C94.2343 62.44 95.4823 62.232 96.8263 62.232V69.336H94.5703C93.6103 69.336 92.7143 69.448 91.8823 69.672C91.0823 69.896 90.3783 70.264 89.7703 70.776C89.1943 71.256 88.7463 71.928 88.4263 72.792C88.1383 73.624 87.9943 74.68 87.9943 75.96V87H81.2743ZM109.893 87.576C107.589 87.576 105.509 87.048 103.653 85.992C101.797 84.904 100.325 83.4 99.2371 81.48C98.1811 79.56 97.6531 77.384 97.6531 74.952C97.6531 72.456 98.1811 70.248 99.2371 68.328C100.325 66.408 101.797 64.92 103.653 63.864C105.509 62.776 107.605 62.232 109.941 62.232C112.277 62.232 114.373 62.776 116.229 63.864C118.085 64.92 119.541 66.408 120.597 68.328C121.685 70.216 122.229 72.408 122.229 74.904C122.229 77.4 121.685 79.608 120.597 81.528C119.509 83.416 118.037 84.904 116.181 85.992C114.357 87.048 112.261 87.576 109.893 87.576ZM109.893 81.768C110.949 81.768 111.877 81.512 112.677 81C113.477 80.488 114.117 79.72 114.597 78.696C115.109 77.672 115.365 76.408 115.365 74.904C115.365 73.4 115.125 72.136 114.645 71.112C114.165 70.088 113.509 69.32 112.677 68.808C111.877 68.296 110.965 68.04 109.941 68.04C108.949 68.04 108.037 68.296 107.205 68.808C106.373 69.32 105.717 70.088 105.237 71.112C104.757 72.136 104.517 73.4 104.517 74.904C104.517 76.408 104.757 77.672 105.237 78.696C105.717 79.72 106.357 80.488 107.157 81C107.989 81.512 108.901 81.768 109.893 81.768ZM133.572 87.576C131.588 87.576 129.924 87.256 128.58 86.616C127.268 85.944 126.292 85.064 125.652 83.976C125.044 82.856 124.74 81.624 124.74 80.28C124.74 78.84 125.108 77.56 125.844 76.44C126.58 75.32 127.716 74.44 129.252 73.8C130.788 73.16 132.708 72.84 135.012 72.84H140.964C140.964 71.688 140.804 70.744 140.484 70.008C140.196 69.24 139.716 68.664 139.044 68.28C138.404 67.896 137.54 67.704 136.452 67.704C135.268 67.704 134.26 67.96 133.428 68.472C132.628 68.984 132.132 69.752 131.94 70.776H125.412C125.604 69.048 126.18 67.56 127.14 66.312C128.1 65.032 129.38 64.04 130.98 63.336C132.612 62.6 134.452 62.232 136.5 62.232C138.772 62.232 140.74 62.616 142.404 63.384C144.1 64.152 145.396 65.256 146.292 66.696C147.22 68.136 147.684 69.912 147.684 72.024V87H142.02L141.252 83.352C140.932 83.992 140.516 84.568 140.004 85.08C139.524 85.592 138.964 86.04 138.324 86.424C137.684 86.776 136.964 87.048 136.164 87.24C135.396 87.464 134.532 87.576 133.572 87.576ZM135.204 82.392C136.004 82.392 136.724 82.264 137.364 82.008C138.004 81.72 138.548 81.32 138.996 80.808C139.444 80.296 139.812 79.72 140.1 79.08C140.388 78.408 140.58 77.688 140.676 76.92V76.872H135.828C134.9 76.872 134.132 77 133.524 77.256C132.948 77.48 132.516 77.816 132.228 78.264C131.94 78.68 131.796 79.16 131.796 79.704C131.796 80.28 131.94 80.776 132.228 81.192C132.516 81.608 132.916 81.912 133.428 82.104C133.94 82.296 134.532 82.392 135.204 82.392ZM162.076 87.576C159.868 87.576 157.9 87.032 156.172 85.944C154.444 84.856 153.068 83.352 152.044 81.432C151.052 79.512 150.556 77.352 150.556 74.952C150.556 72.488 151.052 70.312 152.044 68.424C153.068 66.504 154.46 65 156.22 63.912C158.012 62.792 160.012 62.232 162.22 62.232C163.948 62.232 165.452 62.552 166.732 63.192C168.012 63.8 169.052 64.68 169.852 65.832V52.44H176.572V87H170.572L169.852 83.736C169.372 84.408 168.78 85.048 168.076 85.656C167.372 86.232 166.524 86.696 165.532 87.048C164.54 87.4 163.388 87.576 162.076 87.576ZM163.708 81.72C164.956 81.72 166.06 81.432 167.02 80.856C167.98 80.28 168.716 79.48 169.228 78.456C169.772 77.432 170.044 76.248 170.044 74.904C170.044 73.56 169.772 72.376 169.228 71.352C168.716 70.328 167.98 69.528 167.02 68.952C166.06 68.376 164.956 68.088 163.708 68.088C162.492 68.088 161.404 68.376 160.444 68.952C159.484 69.528 158.732 70.328 158.188 71.352C157.676 72.376 157.42 73.544 157.42 74.856C157.42 76.2 157.676 77.4 158.188 78.456C158.732 79.48 159.484 80.28 160.444 80.856C161.404 81.432 162.492 81.72 163.708 81.72Z" fill="black"/>
<line x1="12.5" x2="12.5" y2="101" stroke="#0900FF" stroke-width="7"/>
</g>
<defs>
<clipPath id="clip0_8_2">
<rect width="249" height="99" fill="white"/>
</clipPath>
</defs>
</svg>
